<svg width="89" height="64" viewBox="0 0 89 64" fill="none" xmlns="http://www.w3.org/2000/svg">
<path fill-rule="evenodd" clip-rule="evenodd" d="M58.25 50.75C67.915 50.75 75.75 42.915 75.75 33.25C75.75 23.585 67.915 15.75 58.25 15.75C48.585 15.75 40.75 23.585 40.75 33.25C40.75 42.915 48.585 50.75 58.25 50.75ZM58.25 52C68.6053 52 77 43.6053 77 33.25C77 22.8947 68.6053 14.5 58.25 14.5C47.8947 14.5 39.5 22.8947 39.5 33.25C39.5 43.6053 47.8947 52 58.25 52Z" fill="white"/>
<path fill-rule="evenodd" clip-rule="evenodd" d="M64.5944 26.2344C64.8962 25.9438 65.3747 25.9459 65.6738 26.2392L71.0945 32.8226C71.4726 33.1933 71.4688 33.8029 71.0862 34.1688L65.7687 40.8047C65.6377 40.93 65.4633 41 65.2819 41L60.8171 41C60.1878 41 59.8747 40.2381 60.3226 39.7965L65.7712 33.5L60.8171 27.4063H58.8297L63.5677 32.8229C63.9544 33.1919 63.9547 33.8085 63.5685 34.1779L57.3431 40.8047C57.2121 40.93 57.0377 41 56.8563 41H49.8124C48.2595 41 47.0005 39.7414 47.0002 38.1885C46.9997 35.0631 47.0001 31.9377 47.0004 28.8124C47.0006 27.2591 48.2598 26 49.813 26H52.6108C52.9996 26 53.3147 26.3148 53.3147 26.7031C53.3147 27.0915 52.9996 27.4063 52.6108 27.4063H50.2834C49.2479 27.4063 48.4084 28.2457 48.4084 29.2813C48.4084 32.0938 48.4084 34.9062 48.4084 37.7187C48.4084 38.7543 49.2479 39.5937 50.2834 39.5937H56.3354L62.0171 33.5L56.5685 27.2035C56.1206 26.7619 56.4337 26 57.063 26H61.4147C61.5961 26 61.7705 26.07 61.9015 26.1953L67.3226 32.8221C67.7088 33.1915 67.7085 33.8081 67.3219 34.1771L62.5838 39.5937H64.6959L69.5253 33.5L64.5944 27.4063C64.2854 27.1009 64.2815 26.5357 64.5944 26.2344Z" fill="white"/>
<path fill-rule="evenodd" clip-rule="evenodd" d="M49.1134 12H17C14.2386 12 12 14.2386 12 17V41.7057C12 44.6296 14.3703 46.9999 17.2941 46.9999L39.6552 47.0002C36.8085 43.1569 35.125 38.4 35.125 33.25C35.125 23.7234 40.8856 15.5423 49.1134 12ZM29.5 27C29.5 28.3807 28.3807 29.5 27 29.5H22C20.6193 29.5 19.5 28.3807 19.5 27L19.5 22C19.5 20.6193 20.6193 19.5 22 19.5L27 19.5C28.3807 19.5 29.5 20.6193 29.5 22V27Z" fill="white"/>
</svg>
