<svg width="89" height="64" viewBox="0 0 89 64" fill="none" xmlns="http://www.w3.org/2000/svg">
<circle cx="58.25" cy="33.25" r="18.75" fill="black"/>
<path fill-rule="evenodd" clip-rule="evenodd" d="M64.5944 25.9844C64.8962 25.6938 65.3747 25.6959 65.6738 25.9892L71.0945 32.5726C71.4726 32.9433 71.4688 33.5529 71.0862 33.9188L65.7687 40.5547C65.6377 40.68 65.4633 40.75 65.2819 40.75L60.8171 40.75C60.1878 40.75 59.8747 39.9881 60.3226 39.5465L65.7712 33.25L60.8171 27.1563H58.8297L63.5678 32.5729C63.9544 32.9419 63.9547 33.5585 63.5685 33.9279L57.3432 40.5547C57.2121 40.68 57.0377 40.75 56.8563 40.75H49.8124C48.2595 40.75 47.0005 39.4914 47.0002 37.9385C46.9997 34.8131 47.0001 31.6877 47.0004 28.5624C47.0006 27.0091 48.2598 25.75 49.813 25.75H52.6108C52.9996 25.75 53.3147 26.0648 53.3147 26.4531C53.3147 26.8415 52.9996 27.1563 52.6108 27.1563H50.2834C49.2479 27.1563 48.4084 27.9957 48.4084 29.0313C48.4084 31.8438 48.4084 34.6562 48.4084 37.4687C48.4084 38.5043 49.2479 39.3437 50.2834 39.3437H56.3354L62.0171 33.25L56.5685 26.9535C56.1206 26.5119 56.4337 25.75 57.063 25.75H61.4147C61.5961 25.75 61.7705 25.82 61.9015 25.9453L67.3226 32.5721C67.7088 32.9415 67.7085 33.5581 67.3219 33.9271L62.5838 39.3437H64.6959L69.5253 33.25L64.5944 27.1563C64.2854 26.8509 64.2815 26.2857 64.5944 25.9844Z" fill="white"/>
<path fill-rule="evenodd" clip-rule="evenodd" d="M17 12.0004L50.8362 12C48.369 12.8607 46.0976 14.1389 44.1066 15.75L18.25 15.7504C16.8693 15.7504 15.75 16.8697 15.75 18.2504V40.7099C15.75 42.1129 16.8873 43.2502 18.2903 43.2502H38.0889C38.7499 44.5803 39.5387 45.8356 40.4391 47.0002H17.2941C14.3703 47.0002 12 44.63 12 41.7061V17.0004C12 14.239 14.2386 12.0004 17 12.0004ZM28.25 30.75C29.6307 30.75 30.75 29.6307 30.75 28.25V23.25C30.75 21.8693 29.6307 20.75 28.25 20.75L23.25 20.75C21.8693 20.75 20.75 21.8693 20.75 23.25L20.75 28.25C20.75 29.6307 21.8693 30.75 23.25 30.75H28.25Z" fill="black"/>
</svg>
